<?xml version="1.0" standalone="no"?>
<!DOCTYPE svg PUBLIC "-//W3C//DTD SVG 20010904//EN"
 "http://www.w3.org/TR/2001/REC-SVG-20010904/DTD/svg10.dtd">
<svg version="1.0" xmlns="http://www.w3.org/2000/svg"
 width="979.000000pt" height="301.000000pt" width="301" height="979" viewBox="0 0 979.000000 301.000000"
 preserveAspectRatio="xMidYMid meet">

<g transform="translate(0.000000,301.000000) scale(0.100000,-0.100000)"
fill="#000000" stroke="none">
<path d="M1010 2927 c-284 -100 -549 -297 -723 -538 -75 -104 -173 -294 -211
-409 -28 -85 -66 -263 -66 -309 0 -27 3 -31 28 -31 15 0 36 -3 47 -6 18 -5 21
4 37 100 83 513 473 962 961 1108 l78 23 -6 39 c-10 69 -12 69 -145 23z"/>
<path d="M1288 2620 c-109 -23 -173 -44 -263 -86 -309 -144 -544 -431 -625
-766 -27 -111 -37 -301 -20 -420 66 -488 437 -874 930 -969 95 -18 308 -16
413 5 234 45 448 164 614 339 84 88 110 125 97 136 -5 5 -65 47 -132 94 l-124
86 -38 -47 c-105 -134 -254 -228 -441 -279 -89 -25 -310 -24 -394 1 -159 48
-254 103 -372 219 l-83 80 -50 -23 c-49 -23 -50 -23 -65 -4 -9 10 -35 60 -60
109 -74 152 -99 269 -92 435 6 138 32 242 87 359 75 156 195 296 330 386 63
42 179 100 185 93 2 -2 10 -20 19 -42 12 -30 20 -37 33 -31 71 27 159 39 278
38 111 0 143 -4 220 -27 158 -48 276 -121 395 -247 l65 -68 105 75 c58 41 112
79 120 83 22 14 -1 49 -95 145 -170 175 -387 290 -624 331 -115 20 -304 18
-413 -5z"/>
<path d="M2753 856 c-121 -243 -339 -461 -595 -596 -198 -104 -364 -148 -593
-157 -284 -11 -520 46 -758 181 l-76 43 -26 -39 c-25 -38 -26 -40 -8 -54 38
-29 261 -133 339 -158 439 -143 920 -76 1309 181 132 87 318 273 404 402 76
114 136 231 124 241 -4 5 -24 15 -44 23 l-36 15 -40 -82z"/>
</g>
</svg>
