<?xml version="1.0" encoding="UTF-8"?>
<svg id="Vrstva_1" xmlns="http://www.w3.org/2000/svg" version="1.1" viewBox="0 0 59.9 24">
  <!-- Generator: Adobe Illustrator 29.3.1, SVG Export Plug-In . SVG Version: 2.1.0 Build 151)  -->
  <defs>
    <style>
      .st0 {
        fill: #fff;
      }
    </style>
  </defs>
  <g id="GRAFIKA">
    <path class="st0" d="M19.4,8.6l-5,1.4c-.1,1.3-.9,2.5-2,3.2l1.6,1.7-2,2,2.2,2c.9-1,1.9-2,3-3.4,0,0,0-.1.1-.2h0c1.4-1.7,2.1-3.8,2.1-5.9s0-.6,0-.9"/>
    <path class="st0" d="M13.5,3.2l-1.2,2.6c1.2.7,2,1.9,2.1,3.3h0s4.9-1.4,4.9-1.4h0C18.5,3.3,14.7.1,10.1,0l.3,1.8,3.1,1.4h0Z"/>
    <path class="st0" d="M12.3,15.3l-1.2-1.3c-.5.2-1.1.3-1.6.3-1,0-1.9-.3-2.7-.9l-2.3,5.3c.8.9,1.4,1.4,2,2,1,.9,1.8,1.6,2.9,3.3,1.1-1.7,1.9-2.4,2.9-3.3.2-.2.5-.4.7-.7l-2.9-2.7,2-2h0Z"/>
    <path class="st0" d="M6.1,12.4c-.7-.8-1.1-1.8-1.1-2.9s.1-1.2.4-1.8c.7-1.6,2.3-2.7,4.1-2.7s1,0,1.4.2l.8-1.7-2.7-1.2-.4-2.4C5.4.3,2.5,2.2,1,5.2c-.7,1.4-1,2.8-1,4.3,0,2.2.7,4.2,2.1,5.9l.2.2c.6.7,1.2,1.4,1.7,2,0,0,0,0,0,0l2.2-5.2h0Z"/>
    <path class="st0" d="M41.7,15.9c-.2,0-.3-.1-.3-.3l-.6-7.8h-1.8l-2,4.6c-.2.6-.5,1.3-.5,1.3h0s-.2-.7-.5-1.3l-2-4.6h-1.8l-.6,7.8c0,.2-.1.3-.3.3h-.5c-.2,0-.3,0-.4-.3l-2.9-7.8h-1.9l-2.9,7.8c0,.2-.2.3-.4.3h-.2v1.5h1.1c.7,0,.9-.2,1.1-.8l.6-1.7h3.3l.6,1.7c.2.6.5.8,1.1.8h2.5c.6,0,.9-.3.9-.9l.3-4.3c0-.6,0-1.5,0-1.5h0s.3,1,.5,1.5l1.6,3.6h1.4l1.6-3.6c.2-.5.5-1.5.5-1.5h0s0,.9,0,1.5l.3,4.3c0,.6.3.9.9.9h1.5v-1.5h-.4,0ZM25.2,13.5l.8-2.4c.2-.5.4-1.4.4-1.4h0s.2.9.4,1.4l.8,2.4s-2.5,0-2.4,0Z"/>
    <path class="st0" d="M47.4,7.6c1.2,0,3.7.5,3.7,2.2v1.1h-1.6v-.5c0-.7-1.2-1-2-1-1.7,0-3.1,1.2-3.1,3.2s1.4,3.4,3.1,3.4,2.9-1.3,2.9-1.3l.9,1.3s-1.4,1.7-3.9,1.7-5-2.2-5-5.1,2.1-4.9,4.9-4.9ZM45.3,5.3h1.3l.7,1.1h0l.7-1.1h1.3l-1.3,1.8h-1.5l-1.2-1.8Z"/>
    <path class="st0" d="M52.8,9.3h-.9v-1.5h4.3c1.8,0,3,1.1,3,2.9s-1.2,2.5-1.6,2.5h0s.3.2.5.5l.9,1.9c.2.3.4.3.7.3h.2v1.5h-.9c-.7,0-1-.1-1.3-.7l-1.2-2.4c-.2-.4-.4-.4-.9-.4h-.9v3.6h-1.8s0-8.1,0-8.1ZM56,12.3c.9,0,1.4-.6,1.4-1.5s-.5-1.5-1.4-1.5h-1.4v3s1.4,0,1.4,0Z"/>
  </g>
</svg>