<svg width="141" viewBox="0 0 141 49" fill="none" xmlns="http://www.w3.org/2000/svg">
<g clip-path="url(#clip0_104_152)">
<path d="M74.7102 10.9765H81.632V21.6621H74.7102V10.9765Z" fill="#78C3ED"/>
<path d="M96.5648 10.9688V35.0501C96.5648 39.5721 93.9382 42.3054 89.1177 42.3054V48.5C98.133 48.5 103.487 43.2501 103.487 34.8333V10.9688H96.5648Z" fill="#78C3ED"/>
<path d="M15.3963 33.2614H10.2668L15.1336 13.2762H15.6589L17.7061 21.6544H24.427L21.6923 10.9688H9.10799L0 46.5642V47.7721H6.72863L8.72173 39.5721H15.3963V33.2614Z" fill="#78C3ED"/>
<path d="M134.82 29.475V28.9485C137.439 28.1741 140.799 26.1144 140.799 20.7484C140.799 14.7552 136.396 10.9688 129.984 10.9688H113.421V21.6544H120.374V17.2795H129.289C132.224 17.2795 134.217 18.9675 134.217 21.6931C134.217 24.4187 132.224 26.1067 129.289 26.1067H127.241V32.4174H129.389C132.433 32.4174 134.426 34.1054 134.426 36.9394C134.426 39.7734 132.433 41.4614 129.389 41.4614H127.241V47.7721H130.231C136.519 47.7721 141.046 43.9857 141.046 37.7834C141.046 32.3167 137.485 30.2106 134.866 29.475" fill="#78C3ED"/>
<path d="M89.0868 0.5H103.456V4.66583H89.0868V0.5Z" fill="#78C3ED"/>
<path d="M38.3323 37.0865H45.2541V47.7721H38.3323V37.0865Z" fill="#78C3ED"/>
<path d="M66.2357 22.5371C66.2357 15.5682 61.4152 10.9688 54.4857 10.9688H38.3323V21.6544H45.285V17.2795H53.8059C57.1123 17.2795 59.3139 19.3314 59.3139 22.5371C59.3139 25.7428 57.1123 27.8489 53.8059 27.8489H51.4342V34.3919L58.0006 47.7721H65.1773V46.5642L58.2247 33.5789C62.9988 32.2083 66.1971 28.1586 66.1971 22.5371" fill="#78C3ED"/>
</g>
<defs>
<clipPath id="clip0_104_152">
<rect width="141" height="48" fill="white" transform="translate(0 0.5)"/>
</clipPath>
</defs>
</svg>
