<?xml version="1.0" standalone="no"?>
<!DOCTYPE svg PUBLIC "-//W3C//DTD SVG 20010904//EN"
 "http://www.w3.org/TR/2001/REC-SVG-20010904/DTD/svg10.dtd">
<svg version="1.0" xmlns="http://www.w3.org/2000/svg"
 width="979.000000pt" height="301.000000pt" viewBox="0 0 979.000000 301.000000"
 preserveAspectRatio="xMidYMid meet">

<g transform="translate(0.000000,301.000000) scale(0.100000,-0.100000)"
fill="#000000" stroke="none">
<path d="M0 1505 l0 -1505 698 1 c383 1 684 4 667 6 -200 24 -362 71 -530 154
-167 83 -162 78 -130 127 l26 39 76 -43 c158 -90 338 -151 520 -175 132 -17
363 -6 493 24 401 94 743 359 930 718 l45 86 43 -18 c23 -10 42 -21 42 -24 0
-16 -76 -153 -131 -236 -86 -129 -272 -315 -404 -402 -189 -124 -418 -213
-629 -241 -87 -12 469 -14 3987 -15 l4087 -1 0 1505 0 1505 -4895 0 -4895 0 0
-1505z m1144 1447 c3 -5 8 -26 11 -48 l7 -39 -81 -24 c-44 -13 -125 -45 -181
-72 -408 -195 -701 -584 -777 -1028 l-18 -101 -47 0 c-47 0 -48 1 -48 31 0 55
39 224 76 330 77 223 183 390 358 565 174 173 333 275 556 355 109 39 135 45
144 31z m557 -327 c237 -41 454 -156 624 -331 94 -96 117 -131 95 -145 -8 -4
-62 -42 -120 -83 l-105 -75 -65 68 c-119 126 -237 199 -395 247 -143 42 -371
37 -498 -11 -13 -6 -21 1 -33 31 -9 22 -17 40 -19 42 -6 7 -122 -51 -185 -93
-183 -122 -334 -334 -391 -550 -24 -94 -35 -284 -21 -365 18 -98 52 -203 93
-280 63 -120 59 -117 119 -91 l52 22 87 -84 c103 -99 192 -154 321 -199 91
-31 102 -32 245 -33 130 0 160 3 225 23 151 48 276 127 382 242 36 38 69 70
73 70 6 0 228 -152 249 -171 24 -21 -166 -219 -291 -302 -298 -198 -680 -247
-1008 -130 -400 144 -683 479 -751 889 -21 128 -14 333 16 452 93 381 381 695
748 816 163 54 385 71 553 41z"/>
</g>
</svg>
